<svg width="117" height="31" viewBox="0 0 117 31" fill="none" xmlns="http://www.w3.org/2000/svg">
<g filter="url(#filter0_i_54_473)">
<path d="M15.3065 28C6.9963 28 1.00391 22.2143 1 14.5C0.996096 6.78571 6.9963 1 15.3065 1H102.244C109 1 116 6.30357 116 14.5C116 22.6964 109 28 102.244 28H15.3065Z" fill="#280707" fill-opacity="0.77"/>
</g>
<path d="M15.3065 28C6.9963 28 1.00391 22.2143 1 14.5C0.996096 6.78571 6.9963 1 15.3065 1H102.244C109 1 116 6.30357 116 14.5C116 22.6964 109 28 102.244 28H15.3065Z" stroke="url(#paint0_linear_54_473)"/>
<g filter="url(#filter1_d_54_473)">
<path d="M15.4548 24C9.96277 24 6.00258 19.9286 6 14.5C5.99742 9.07143 9.96277 5 15.4548 5H52.4085C56.8731 5 61.4993 8.73214 61.4993 14.5C61.4993 20.2679 56.8731 24 52.4085 24H15.4548Z" fill="url(#paint1_linear_54_473)"/>
<path d="M15.4548 24C9.96277 24 6.00258 19.9286 6 14.5C5.99742 9.07143 9.96277 5 15.4548 5H52.4085C56.8731 5 61.4993 8.73214 61.4993 14.5C61.4993 20.2679 56.8731 24 52.4085 24H15.4548Z" stroke="url(#paint2_linear_54_473)"/>
</g>
<defs>
<filter id="filter0_i_54_473" x="0.5" y="0.5" width="120" height="38" filterUnits="userSpaceOnUse" color-interpolation-filters="sRGB">
<feFlood flood-opacity="0" result="BackgroundImageFix"/>
<feBlend mode="normal" in="SourceGraphic" in2="BackgroundImageFix" result="shape"/>
<feColorMatrix in="SourceAlpha" type="matrix" values="0 0 0 0 0 0 0 0 0 0 0 0 0 0 0 0 0 0 127 0" result="hardAlpha"/>
<feOffset dx="4" dy="10"/>
<feGaussianBlur stdDeviation="5"/>
<feComposite in2="hardAlpha" operator="arithmetic" k2="-1" k3="1"/>
<feColorMatrix type="matrix" values="0 0 0 0 0 0 0 0 0 0 0 0 0 0 0 0 0 0 0.25 0"/>
<feBlend mode="normal" in2="shape" result="effect1_innerShadow_54_473"/>
</filter>
<filter id="filter1_d_54_473" x="3.5" y="2.5" width="64.5" height="28" filterUnits="userSpaceOnUse" color-interpolation-filters="sRGB">
<feFlood flood-opacity="0" result="BackgroundImageFix"/>
<feColorMatrix in="SourceAlpha" type="matrix" values="0 0 0 0 0 0 0 0 0 0 0 0 0 0 0 0 0 0 127 0" result="hardAlpha"/>
<feOffset dx="2" dy="2"/>
<feGaussianBlur stdDeviation="2"/>
<feComposite in2="hardAlpha" operator="out"/>
<feColorMatrix type="matrix" values="0 0 0 0 1 0 0 0 0 0 0 0 0 0 0 0 0 0 0.41 0"/>
<feBlend mode="normal" in2="BackgroundImageFix" result="effect1_dropShadow_54_473"/>
<feBlend mode="normal" in="SourceGraphic" in2="effect1_dropShadow_54_473" result="shape"/>
</filter>
<linearGradient id="paint0_linear_54_473" x1="116" y1="28" x2="1.0004" y2="28" gradientUnits="userSpaceOnUse">
<stop stop-color="#FF0000"/>
<stop offset="1" stop-color="#FFE600"/>
</linearGradient>
<linearGradient id="paint1_linear_54_473" x1="60.8417" y1="24" x2="5.5" y2="24" gradientUnits="userSpaceOnUse">
<stop stop-color="#FF0000"/>
<stop offset="0.484375" stop-color="#FF9300"/>
<stop offset="1" stop-color="#FFE600"/>
</linearGradient>
<linearGradient id="paint2_linear_54_473" x1="61.5003" y1="24" x2="10" y2="24" gradientUnits="userSpaceOnUse">
<stop stop-color="#FF0000"/>
<stop offset="1" stop-color="#FFE600"/>
</linearGradient>
</defs>
</svg>
